<svg width="106" height="116" viewBox="0 0 106 116" fill="none" xmlns="http://www.w3.org/2000/svg">
<g id="Clown">
<path id="Vector" d="M75.9975 82.3943C75.3987 82.2089 74.7507 82.2689 74.1962 82.5612C73.6417 82.8535 73.226 83.3541 73.0405 83.9529C71.7065 88.2384 69.0371 91.985 65.4224 94.6455C61.8077 97.3061 57.437 98.7412 52.9487 98.7412C48.4604 98.7412 44.0897 97.3061 40.475 94.6455C36.8602 91.985 34.1909 88.2384 32.8568 83.9529C32.7659 83.6554 32.6171 83.3787 32.419 83.1388C32.2209 82.8989 31.9773 82.7005 31.7024 82.5549C31.4274 82.4094 31.1264 82.3195 30.8166 82.2906C30.5069 82.2616 30.1944 82.294 29.8972 82.3861C29.6 82.4781 29.3239 82.6279 29.0848 82.8269C28.8456 83.0259 28.6481 83.2702 28.5035 83.5457C28.3589 83.8211 28.2702 84.1225 28.2424 84.4323C28.2145 84.7422 28.2481 85.0545 28.3413 85.3514C29.9741 90.601 33.243 95.1908 37.6702 98.4502C42.0975 101.71 47.4511 103.468 52.9487 103.468C58.4464 103.468 63.8 101.71 68.2272 98.4501C72.6545 95.1907 75.9233 90.6009 77.5561 85.3512C77.7415 84.7524 77.6814 84.1045 77.3891 83.55C77.0968 82.9955 76.5963 82.5798 75.9975 82.3943Z" fill="#FF4848"/>
<path id="Vector_2" d="M52.9485 88.3769C59.7112 88.3769 65.1933 82.8947 65.1933 76.132C65.1933 69.3694 59.7112 63.8872 52.9485 63.8872C46.1859 63.8872 40.7037 69.3694 40.7037 76.132C40.7037 82.8947 46.1859 88.3769 52.9485 88.3769Z" fill="#262525"/>
<path id="Vector_3" d="M102.464 69.4804C103.057 68.0878 103.362 66.5896 103.36 65.0761C103.347 62.6667 102.57 60.3236 101.14 58.3841C99.7109 56.4445 97.7028 55.0086 95.4052 54.283C95.9933 51.3725 95.6754 48.3516 94.4942 45.6273C93.3131 42.903 91.3255 40.606 88.799 39.0457C86.2726 37.4855 83.3288 36.7369 80.364 36.9007C77.3991 37.0646 74.5557 38.1331 72.2166 39.9622L55.1024 2.10011C54.9151 1.68578 54.6123 1.33425 54.2303 1.08768C53.8483 0.841108 53.4032 0.709961 52.9485 0.709961C52.4938 0.709961 52.0488 0.841108 51.6668 1.08768C51.2848 1.33425 50.982 1.68578 50.7947 2.10011L33.6804 39.9622C31.3402 38.1378 28.4978 37.0734 25.5349 36.9119C22.572 36.7503 19.6306 37.4995 17.106 39.0587C14.5814 40.6178 12.5944 42.9123 11.412 45.6339C10.2296 48.3554 9.90853 51.3736 10.4918 54.283C8.19425 55.0086 6.18616 56.4445 4.75664 58.384C3.32712 60.3236 2.54989 62.6667 2.53686 65.0761C2.53549 66.5896 2.84033 68.0878 3.43305 69.4804C1.61811 71.6635 0.625662 74.4135 0.628271 77.2525V80.7791C0.631915 84.0126 1.918 87.1125 4.20438 89.3989C6.49076 91.6853 9.59071 92.9714 12.8241 92.975H16.8039C20.0126 99.8549 25.1182 105.676 31.5209 109.755C37.9235 113.833 45.3572 116 52.9486 116C60.54 116 67.9737 113.833 74.3764 109.755C80.779 105.676 85.8846 99.8549 89.0934 92.975H93.0731C96.3065 92.9714 99.4065 91.6853 101.693 89.3989C103.979 87.1125 105.265 84.0126 105.269 80.7791V77.2525C105.272 74.4135 104.279 71.6634 102.464 69.4804ZM44.3325 40.6377L62.8564 30.7315L67.3341 40.6377H44.3325ZM43.9606 28.6963L58.4371 20.9545L60.905 26.4145L39.9191 37.6371L43.9606 28.6963ZM52.9485 8.81211L56.4856 16.6373L47.1562 21.6266L52.9485 8.81211ZM100.542 80.7791C100.539 82.7593 99.7518 84.6577 98.3516 86.0578C96.9514 87.458 95.053 88.2456 93.0729 88.2478H90.9279C92.1811 84.3314 92.8183 80.244 92.8167 76.132C92.8167 75.5051 92.5676 74.9039 92.1244 74.4607C91.6811 74.0174 91.0799 73.7684 90.453 73.7684C89.8262 73.7684 89.225 74.0174 88.7817 74.4607C88.3385 74.9039 88.0894 75.5051 88.0894 76.132C88.0973 83.9329 85.4962 91.5123 80.6999 97.6645H80.7358C77.4479 101.901 73.2349 105.33 68.4188 107.688C63.6027 110.047 58.3111 111.273 52.9485 111.273C47.5859 111.273 42.2943 110.047 37.4782 107.688C32.6621 105.33 28.4491 101.901 25.1612 97.6645H25.1971C20.4008 91.5123 17.7997 83.9329 17.8076 76.132C17.8076 75.5051 17.5585 74.9039 17.1153 74.4607C16.672 74.0174 16.0708 73.7684 15.4439 73.7684C14.8171 73.7684 14.2159 74.0174 13.7726 74.4607C13.3294 74.9039 13.0803 75.5051 13.0803 76.132C13.0787 80.244 13.7159 84.3314 14.9691 88.2478H12.8241C10.844 88.2456 8.94556 87.458 7.54539 86.0578C6.14523 84.6577 5.35765 82.7593 5.35543 80.7791V77.2525C5.35765 75.2724 6.14524 73.374 7.5454 71.9738C8.94557 70.5736 10.844 69.786 12.8241 69.7838H16.4632C16.995 69.7838 17.5112 69.6045 17.9284 69.2749C18.3457 68.9453 18.6396 68.4846 18.7627 67.9673C19.9075 63.2163 22.0256 58.7545 24.9831 54.864C27.9406 50.9736 31.6731 47.739 35.9447 45.365H69.9523C74.2239 47.739 77.9564 50.9736 80.9139 54.864C83.8714 58.7545 85.9895 63.2163 87.1343 67.9673C87.2574 68.4846 87.5513 68.9453 87.9685 69.2749C88.3858 69.6045 88.902 69.7838 89.4337 69.7838H93.0729C95.053 69.786 96.9514 70.5736 98.3516 71.9738C99.7518 73.374 100.539 75.2724 100.542 77.2525V80.7791Z" fill="#FF4848"/>
<path id="Vector_4" d="M69.763 65.8673C71.7589 65.5434 73.1143 63.6629 72.7904 61.667C72.4665 59.6712 70.586 58.3157 68.5901 58.6396C66.5942 58.9635 65.2388 60.844 65.5627 62.8399C65.8866 64.8358 67.7671 66.1912 69.763 65.8673Z" fill="#FF4848"/>
<path id="Vector_5" d="M40.103 63.6548C40.8768 61.7867 39.9897 59.645 38.1216 58.8713C36.2535 58.0975 34.1119 58.9846 33.3381 60.8527C32.5643 62.7207 33.4514 64.8624 35.3195 65.6362C37.1876 66.4099 39.3292 65.5228 40.103 63.6548Z" fill="#FF4848"/>
</g>
</svg>
